PathFileType	4	(X/Y/Z)	Walk10.trc
DataRate	CameraRate	NumFrames	NumMarkers	Units	OrigDataRate	OrigDataStartFrame	OrigNumFrames
200.000000	200.000000	6	60	mm	200.000000	525	568
Frame#	Times		LFHD		RFHD		CLAV		STRN		LASI		RASI		RACR1		RUA1		RElbow		RFA1		RWRR		RWRU		RCAR		LACR1		LUA1		LElbow		LFA1		LWRR		LWRU		LCAR		RTH2		RTB1		RTB2		LTH1		LTH3		LTH2		LLFC		LMFC		LTB1		LTB2		LTB4		LMT1		RTB4		LTB3		RTH3		RTB3		LToe		RMFC		LTH4		RElbowM		RTH4		RToe		RTH1		RMT1		RMMAL		RLFC		LBHD		RCAL		RBack		LMT5		RLMAL		RPSI		LMMAL		T10		C7		LPSI		LLMAL		LElbowM		LCAL		RBHD
			X1	Y1	Z1	X2	Y2	Z2	X3	Y3	Z3	X4	Y4	Z4	X5	Y5	Z5	X6	Y6	Z6	X7	Y7	Z7	X8	Y8	Z8	X9	Y9	Z9	X10	Y10	Z10	X11	Y11	Z11	X12	Y12	Z12	X13	Y13	Z13	X14	Y14	Z14	X15	Y15	Z15	X16	Y16	Z16	X17	Y17	Z17	X18	Y18	Z18	X19	Y19	Z19	X20	Y20	Z20	X21	Y21	Z21	X22	Y22	Z22	X23	Y23	Z23	X24	Y24	Z24	X25	Y25	Z25	X26	Y26	Z26	X27	Y27	Z27	X28	Y28	Z28	X29	Y29	Z29	X30	Y30	Z30	X31	Y31	Z31	X32	Y32	Z32	X33	Y33	Z33	X34	Y34	Z34	X35	Y35	Z35	X36	Y36	Z36	X37	Y37	Z37	X38	Y38	Z38	X39	Y39	Z39	X40	Y40	Z40	X41	Y41	Z41	X42	Y42	Z42	X43	Y43	Z43	X44	Y44	Z44	X45	Y45	Z45	X46	Y46	Z46	X47	Y47	Z47	X48	Y48	Z48	X49	Y49	Z49	X50	Y50	Z50	X51	Y51	Z51	X52	Y52	Z52	X53	Y53	Z53	X54	Y54	Z54	X55	Y55	Z55	X56	Y56	Z56	X57	Y57	Z57	X58	Y58	Z58	X59	Y59	Z59	X60	Y60	Z60

525	2.625	1320.4	1663.4	-76.847	1324.5	1672.8	21.536	1318.4	1416.2	-0.069357	1387.5	1259.6	5.3507	1264.1	991.62	-165.81	1285.4	1007.3	205.13	1205.7	1509.4	167.52	1176.1	1347.9	293.99	1178.1	1199.4	346.34	1202.1	1048.1	365.26	1220	927.6	300.86	1211.8	934.67	380.95	1244.5	850.53	349.73	1197.1	1471.2	-181.54	1179.6	1296.3	-268.23	1196.2	1133.4	-321.12	1252.5	1005.6	-330.16	1333.4	902.83	-268.96	1297.7	874.27	-327.52	1371.5	825.97	-302.36	1340.4	749.66	229.95	1357.7	407.57	165.63	1298.3	339.99	220.45	1202.5	761.05	-169.6	1211.6	594.24	-132.47	1263.3	685	-137.32	1194.7	509.43	-124.08	1215.3	509.24	31.946	1255.6	385.15	-55.122	1210.8	295.78	-85.604	1241.9	304.93	-32.011	1272	37.885	9.307	1315.4	332.38	161.95	1220.4	222.91	-11.497	1326.1	645.7	238.88	1273.1	257.74	157.29	1325	27.371	-30.28	1338.3	532.9	80.071	1205	678.54	-149.87	1117.6	1129.1	255.95	1289.3	723.22	245.12	1322.3	57.112	176.68	1250.4	801.02	248.93	1282.9	56.312	140.5	1182.2	148.18	106.03	1336	540.09	235.52	1166.7	1592.6	-78.259	1081.2	142.59	143.42	1060	1386.7	118.17	1203.4	24.65	-66.886	1146.1	151.11	190.46	1019.6	1038.9	61.545	1142.4	87.256	82.713	1060.4	1179.9	16.84	1124.8	1495.6	-3.031	1025.1	1049.9	-24.732	1112.2	75.919	-1.6705	1143.7	1065.1	-228.53	1062.6	50.992	58.505	1189	1610.6	70.152
526	2.63	1326	1663.3	-76.771	1330	1672.6	21.629	1323.8	1416.1	-0.31814	1392.9	1259.5	4.923	1269.1	991.62	-166.27	1291.7	1007.1	204.11	1211.1	1509.2	167.32	1181.2	1347.8	293.81	1182.9	1199.3	346.13	1206.5	1047.8	365.06	1224.2	927.3	300.76	1215.8	934.4	380.78	1248.2	850.13	349.57	1202.5	1471.3	-181.73	1186.3	1296.4	-268.72	1204.5	1133.8	-321.94	1262.2	1006.7	-331.06	1343.9	904.67	-269.79	1308.8	875.92	-328.62	1383	828.29	-303.24	1347.7	750.9	229.28	1369.8	408.89	164.68	1312.1	339.79	219.48	1206.1	760.8	-169.91	1214.7	593.95	-132.69	1266.9	684.45	-137.57	1197.4	509.17	-124.18	1218	508.95	31.82	1257.6	384.54	-55.165	1212.2	295.42	-85.605	1243.4	304.39	-32.018	1272.1	37.889	9.2438	1329.5	332.54	161.05	1221.5	222.51	-11.456	1334.2	646.82	237.99	1289.3	256.77	156.45	1325.2	27.205	-30.364	1347.3	534.05	78.963	1208.5	678.27	-150.12	1122.2	1129.1	255.76	1296.7	724.03	244.51	1343.8	57.752	176.32	1257.3	801.49	248.57	1304.6	55.727	140.06	1201.6	144.71	105.16	1345	541.07	234.4	1172.2	1592.6	-78.311	1100.6	136.4	142.2	1065.4	1386.5	117.86	1203.4	24.664	-66.864	1165.1	146.72	189.52	1025.2	1038.8	61.696	1142.7	87.329	82.862	1065.9	1179.7	16.78	1130.2	1495.5	-3.2746	1030.4	1049.9	-24.566	1112.5	76.101	-1.5077	1152.4	1064.8	-229.55	1062.8	51.349	58.699	1194.6	1610.3	70.145
527	2.635	1331.5	1663.2	-76.702	1335.6	1672.3	21.714	1329.2	1416	-0.56559	1398.3	1259.3	4.4938	1274.1	991.61	-166.7	1298.1	1006.7	203.07	1216.6	1509	167.13	1186.3	1347.7	293.62	1187.8	1199.1	345.94	1211	1047.6	364.87	1228.3	926.94	300.63	1219.9	934.09	380.62	1251.9	849.68	349.4	1207.9	1471.3	-181.91	1193.1	1296.4	-269.19	1212.7	1134.2	-322.72	1271.8	1007.7	-331.94	1354.5	906.49	-270.59	1319.9	877.54	-329.68	1394.4	830.6	-304.1	1354.8	752.03	228.61	1381.7	410.19	163.76	1325.7	339.6	218.52	1209.8	760.54	-170.19	1217.8	593.64	-132.92	1270.4	683.88	-137.81	1200.1	508.9	-124.29	1220.8	508.64	31.681	1259.6	383.9	-55.218	1213.8	295.04	-85.609	1244.9	303.84	-32.03	1272.3	37.888	9.1833	1343.6	332.73	160.18	1222.6	222.11	-11.416	1342.2	647.86	237.13	1305.5	255.85	155.63	1325.3	27.043	-30.451	1356.2	535.07	77.861	1212.1	677.98	-150.39	1126.9	1129	255.57	1304.1	724.75	243.93	1365.4	58.543	175.97	1264.1	801.89	248.24	1326.4	55.326	139.61	1221.2	141.37	104.24	1353.8	541.96	233.28	1177.7	1592.6	-78.363	1120.2	130.31	140.88	1070.9	1386.3	117.58	1203.4	24.681	-66.834	1184.2	142.42	188.51	1030.8	1038.7	61.862	1143.1	87.432	83.033	1071.4	1179.6	16.753	1135.7	1495.3	-3.4983	1035.7	1049.8	-24.375	1112.8	76.295	-1.3372	1161	1064.5	-230.52	1063.1	51.728	58.907	1200.2	1610.1	70.137
528	2.64	1337.1	1663.1	-76.64	1341.2	1672	21.791	1334.7	1415.8	-0.81202	1403.7	1259.1	4.0625	1279.1	991.58	-167.1	1304.4	1006.4	202.03	1222.1	1508.7	166.94	1191.5	1347.5	293.44	1192.6	1198.9	345.75	1215.4	1047.2	364.68	1232.4	926.53	300.48	1223.9	933.73	380.46	1255.6	849.18	349.24	1213.3	1471.3	-182.08	1199.8	1296.3	-269.63	1221	1134.5	-323.47	1281.3	1008.7	-332.77	1365	908.3	-271.38	1330.9	879.15	-330.68	1405.9	832.9	-304.95	1361.9	753.05	227.95	1393.4	411.45	162.88	1339.2	339.41	217.57	1213.5	760.25	-170.44	1221	593.3	-133.16	1274	683.3	-138.07	1202.9	508.59	-124.41	1223.7	508.32	31.527	1261.7	383.24	-55.282	1215.3	294.65	-85.617	1246.5	303.27	-32.048	1272.4	37.879	9.1257	1357.6	332.93	159.32	1223.7	221.69	-11.377	1350	648.8	236.31	1321.6	255	154.81	1325.5	26.884	-30.54	1364.9	535.97	76.768	1215.7	677.66	-150.66	1131.5	1128.9	255.39	1311.4	725.38	243.37	1387	59.496	175.64	1270.8	802.21	247.95	1348.2	55.122	139.14	1240.8	138.17	103.26	1362.5	542.73	232.17	1183.3	1592.5	-78.414	1140	124.34	139.46	1076.4	1386.1	117.33	1203.4	24.701	-66.797	1203.5	138.24	187.44	1036.4	1038.5	62.043	1143.5	87.564	83.221	1076.9	1179.3	16.762	1141.1	1495.1	-3.7014	1041	1049.7	-24.157	1113	76.502	-1.1602	1169.7	1064.2	-231.44	1063.3	52.129	59.128	1205.8	1609.7	70.125
529	2.645	1342.7	1662.8	-76.586	1346.8	1671.6	21.861	1340.1	1415.6	-1.0578	1409.1	1258.8	3.6288	1284.1	991.54	-167.48	1310.7	1005.9	201.01	1227.7	1508.3	166.76	1196.6	1347.2	293.27	1197.5	1198.6	345.57	1219.8	1046.9	364.49	1236.3	926.06	300.3	1228	933.32	380.3	1259.3	848.64	349.08	1218.7	1471.2	-182.25	1206.5	1296.2	-270.05	1229.2	1134.8	-324.18	1290.9	1009.7	-333.57	1375.5	910.09	-272.15	1341.9	880.73	-331.64	1417.2	835.19	-305.78	1368.9	753.96	227.3	1405.1	412.69	162.04	1352.6	339.23	216.61	1217.2	759.95	-170.66	1224.2	592.94	-133.41	1277.6	682.7	-138.33	1205.7	508.27	-124.54	1226.7	507.97	31.36	1263.9	382.56	-55.357	1216.9	294.24	-85.63	1248.2	302.68	-32.072	1272.5	37.864	9.0709	1371.5	333.16	158.49	1224.9	221.27	-11.341	1357.8	649.65	235.52	1337.8	254.23	153.99	1325.7	26.726	-30.632	1373.4	536.75	75.684	1219.4	677.33	-150.94	1136.2	1128.8	255.21	1318.6	725.93	242.84	1408.5	60.622	175.32	1277.4	802.45	247.68	1370.1	55.125	138.66	1260.6	135.13	102.24	1371	543.38	231.06	1188.8	1592.3	-78.466	1160	118.51	137.97	1081.9	1385.8	117.11	1203.4	24.723	-66.753	1222.9	134.18	186.3	1042.1	1038.3	62.242	1143.9	87.721	83.418	1082.4	1179.1	16.806	1146.6	1494.8	-3.8835	1046.3	1049.6	-23.913	1113.3	76.724	-0.97793	1178.3	1063.8	-232.31	1063.6	52.551	59.36	1211.4	1609.4	70.109
530	2.65	1348.3	1662.6	-76.54	1352.4	1671.2	21.921	1345.6	1415.3	-1.3033	1414.5	1258.4	3.1924	1289	991.49	-167.84	1317.1	1005.4	200.01	1233.3	1508	166.59	1201.8	1346.9	293.11	1202.4	1198.3	345.39	1224.2	1046.5	364.32	1240.1	925.55	300.09	1232	932.87	380.15	1263	848.06	348.92	1224	1471	-182.41	1213.2	1296.1	-270.45	1237.4	1135	-324.86	1300.3	1010.6	-334.34	1385.9	911.86	-272.89	1352.8	882.28	-332.56	1428.5	837.46	-306.58	1375.8	754.76	226.66	1416.6	413.9	161.23	1365.9	339.06	215.67	1221	759.63	-170.86	1227.5	592.56	-133.67	1281.3	682.09	-138.59	1208.6	507.92	-124.68	1229.7	507.61	31.18	1266.1	381.86	-55.445	1218.6	293.83	-85.648	1249.9	302.08	-32.104	1272.6	37.842	9.0186	1385.3	333.42	157.68	1226.1	220.83	-11.307	1365.5	650.4	234.76	1353.9	253.54	153.18	1325.8	26.569	-30.724	1381.8	537.4	74.612	1223.1	676.96	-151.23	1140.8	1128.6	255.03	1325.7	726.39	242.34	1429.9	61.933	175.01	1284	802.62	247.44	1391.9	55.347	138.17	1280.4	132.27	101.16	1379.3	543.9	229.96	1194.4	1592.1	-78.519	1180.1	112.83	136.39	1087.4	1385.5	116.93	1203.4	24.748	-66.701	1242.4	130.27	185.09	1047.7	1038	62.458	1144.3	87.901	83.62	1087.9	1178.8	16.887	1152	1494.4	-4.0439	1051.5	1049.4	-23.641	1113.6	76.963	-0.79183	1187	1063.4	-233.13	1063.9	52.996	59.603	1217	1609	70.088
